<?xml version="1.0" standalone="no"?>
<!DOCTYPE svg PUBLIC "-//W3C//DTD SVG 20010904//EN"
 "http://www.w3.org/TR/2001/REC-SVG-20010904/DTD/svg10.dtd">
<svg version="1.0" xmlns="http://www.w3.org/2000/svg"
 width="1280.000000pt" height="971.000000pt" viewBox="0 0 1280.000000 971.000000"
 preserveAspectRatio="xMidYMid meet">
<metadata>
Created by potrace 1.15, written by Peter Selinger 2001-2017
</metadata>
<g transform="translate(0.000000,971.000000) scale(0.100000,-0.100000)"
fill="#000000" stroke="none">
<path d="M6895 9213 c-1112 -90 -2087 -683 -2671 -1626 -169 -272 -332 -655
-399 -935 -10 -40 -20 -71 -22 -69 -2 3 1 24 6 48 10 45 8 66 -4 30 -10 -34
-22 -27 -81 46 -34 43 -55 32 -82 -40 -31 -80 -37 -124 -21 -144 8 -10 -6 -1
-31 20 -47 40 -151 94 -234 122 -194 64 -516 73 -721 20 l-57 -15 -75 70 c-84
78 -191 137 -302 165 -312 79 -654 -47 -793 -292 l-30 -53 -72 0 c-186 0 -346
-92 -421 -242 -19 -39 -35 -83 -35 -97 0 -27 0 -27 -64 -23 -85 6 -210 -12
-300 -42 -142 -48 -254 -134 -312 -239 -26 -46 -29 -62 -29 -142 0 -79 3 -96
28 -143 28 -54 87 -119 146 -162 l33 -25 -40 -49 c-107 -129 -148 -294 -108
-441 37 -142 163 -296 298 -365 l68 -35 0 -46 c0 -79 27 -138 94 -204 136
-135 367 -209 651 -209 145 0 245 13 352 45 57 18 67 18 135 5 421 -84 964
-93 1423 -25 272 40 534 118 703 209 40 22 70 35 67 30 -12 -19 139 -293 259
-470 213 -314 480 -594 786 -823 74 -55 159 -119 189 -141 33 -25 71 -67 98
-110 24 -37 55 -78 69 -91 32 -30 151 -110 186 -126 15 -6 25 -16 22 -20 -3
-5 28 -10 68 -11 70 -2 71 -2 13 -5 -365 -17 -617 -60 -845 -144 -57 -21 -187
-84 -207 -100 -7 -7 -42 -1 -100 14 -260 72 -477 98 -813 99 -321 0 -544 -26
-792 -92 -163 -43 -331 -115 -428 -184 -45 -33 -45 -33 -130 -25 -122 11 -406
10 -540 -1 -427 -35 -781 -170 -854 -325 -40 -84 -5 -176 95 -250 60 -44 60
-44 32 -51 -150 -34 -289 -81 -375 -126 -32 -17 -78 -52 -103 -79 -37 -40 -45
-55 -45 -87 0 -226 699 -401 1603 -402 152 0 354 7 469 16 l201 15 59 -65
c130 -144 369 -245 713 -302 137 -23 582 -30 720 -12 l100 14 60 -46 c102 -79
196 -129 345 -187 939 -359 2625 -244 3120 214 l68 63 38 -14 c22 -7 89 -25
149 -39 481 -115 1045 -94 1486 53 330 110 543 288 565 472 l6 53 57 19 c216
70 437 221 557 379 54 72 127 219 144 293 14 63 18 234 6 293 -5 26 -4 41 1
38 11 -7 6 107 -8 188 -25 141 -116 302 -240 424 -214 211 -529 333 -894 348
-213 8 -347 -13 -675 -107 -95 -27 -138 -23 -260 28 -140 58 -182 67 -310 67
-145 0 -183 -6 -385 -60 -55 -15 -129 -28 -165 -30 -439 -21 -527 -21 -577 1
-21 9 -48 18 -60 19 -21 3 -83 41 -83 51 0 3 12 -3 28 -14 40 -28 61 -37 33
-14 -37 30 -85 57 -76 42 4 -6 -4 -4 -19 5 -26 17 -37 33 -13 19 7 -4 8 -3 4
2 -5 5 -16 9 -25 9 -9 0 -16 6 -14 13 1 8 -2 11 -7 8 -18 -12 -215 157 -391
333 -231 232 -385 432 -538 696 -266 462 -428 1009 -448 1515 -2 74 -7 150 -9
168 -2 19 0 30 6 27 5 -4 9 -14 9 -24 0 -10 17 -52 37 -92 66 -133 209 -256
390 -335 41 -17 76 -33 77 -35 2 -2 -2 -38 -10 -79 -36 -205 72 -412 288 -553
78 -50 78 -51 59 -71 -30 -33 -41 -62 -41 -105 0 -125 262 -254 683 -335 118
-24 130 -28 165 -62 141 -138 430 -260 732 -308 418 -68 877 -20 1217 126 l95
40 71 -20 c91 -27 245 -58 367 -74 122 -16 488 -16 610 0 416 55 776 196 1016
398 l51 43 62 -25 c75 -30 207 -42 296 -25 85 15 209 80 282 146 119 107 205
273 233 447 12 76 9 275 -5 328 -5 18 -4 21 3 11 7 -10 12 11 17 72 14 168
-39 369 -134 503 -99 142 -214 221 -380 264 -128 32 -163 55 -201 129 -28 56
-52 78 -90 85 -3 1 -42 40 -88 87 -173 181 -356 269 -623 300 -88 10 -122 9
-219 -4 -64 -9 -135 -22 -157 -30 l-42 -14 -16 51 c-28 85 -82 194 -129 259
-87 123 -230 241 -355 293 -69 29 -196 54 -276 54 -74 0 -226 -28 -263 -49
-12 -7 -25 4 -57 48 -49 66 -151 164 -215 208 -117 79 -289 147 -440 174 -95
17 -302 16 -400 0 -160 -28 -330 -97 -455 -186 -111 -79 -254 -249 -279 -332
-7 -21 -12 -22 -116 -22 -120 0 -224 -21 -322 -64 -186 -83 -336 -255 -371
-427 l-13 -60 -169 -3 c-209 -5 -328 -30 -488 -101 -169 -75 -333 -231 -383
-363 -14 -37 -15 -37 -9 37 45 585 265 1180 618 1675 351 492 858 904 1407
1143 74 33 165 70 203 83 37 13 67 26 67 29 0 9 -158 55 -300 89 -152 36 -345
67 -500 81 -105 9 -438 11 -535 3z m4986 -3055 c41 -80 36 -87 -6 -9 -19 36
-39 69 -45 75 -5 5 -10 15 -10 21 1 16 29 -24 61 -87z m49 -113 c0 -5 -5 -3
-10 5 -5 8 -10 20 -10 25 0 6 5 3 10 -5 5 -8 10 -19 10 -25z m17 -67 c-3 -8
-6 -5 -6 6 -1 11 2 17 5 13 3 -3 4 -12 1 -19z m10 -40 c-3 -8 -6 -5 -6 6 -1
11 2 17 5 13 3 -3 4 -12 1 -19z m-3479 -3045 c-21 -2 -55 -2 -75 0 -21 2 -4 4
37 4 41 0 58 -2 38 -4z m-183 -14 c-38 -4 -104 -17 -145 -28 -41 -11 -76 -18
-78 -16 -4 4 38 16 133 40 28 7 75 13 105 13 55 -1 54 -1 -15 -9z m308 4 c-13
-2 -35 -2 -50 0 -16 2 -5 4 22 4 28 0 40 -2 28 -4z m64 -9 c-3 -3 -12 -4 -19
-1 -8 3 -5 6 6 6 11 1 17 -2 13 -5z m46 -11 c-7 -2 -19 -2 -25 0 -7 3 -2 5 12
5 14 0 19 -2 13 -5z m74 -19 c-3 -3 -12 -4 -19 -1 -8 3 -5 6 6 6 11 1 17 -2
13 -5z"/>
</g>
</svg>
